<?xml version="1.0" encoding="UTF-8"?>
<svg id="Lag_1" data-name="Lag 1" xmlns="http://www.w3.org/2000/svg" viewBox="0 0 1920 1080">
  <defs>
    <style>
      .cls-1 {
        fill: none;
      }

      .cls-1, .cls-2, .cls-3 {
        stroke: #000;
        stroke-miterlimit: 10;
      }

      .cls-2 {
        fill: #ff2900;
      }

      .cls-3 {
        fill: #65bb00;
      }
    </style>
  </defs>
  <path class="cls-3" d="M998.25,65.92c-13.46,26.54-12.93,45.03-9.91,57.05,2.95,11.73,8.95,20.02,9.91,36.38.76,13.03-2.11,23.83-4.56,30.76-.08,5.26-.88,13.01-4.71,21.14-4.45,9.45-10.61,14.36-14.47,18.09-19.08,18.42-22.51,46.99-24.63,64.64-1.05,8.76-1.77,21.71.51,37.41-11.21-.09-20.87,7.06-23.52,16.74-3.2,11.7,4.37,25.22,17.82,28.84-25.43,16.89-32.57,41.24-25.66,50.76,6.1,8.4,25.98,9.16,46.17-.62,2.35,1.86,6.16,4.28,11.11,4.84,8.61.97,14.31-4.41,21.1-7.24,6.6-2.75,17.16-4.31,33.87,2.39,11.29,7.78,14.86,15.61,16.18,20.52,6.52,24.18-19.35,58.63-67.46,80.88-2.55-10.76-10.15-19.03-19.69-21.19-7.07-1.6-13.05.65-15.63,1.82-2.28,1.89-5.55,5.02-8.18,9.64-9.85,17.32,1.82,33.48-3.62,54.27-1.71,6.54-5.62,15.48-15.55,24.96-10.89-11.19-24.67-14.44-32.69-9.28-5.46,3.51-8.02,10.79-8.22,16.54-.45,12.36,9.98,17.43,8.83,28.68-.59,5.77-3.92,10.2-6.65,13.05-8.72-7.06-20.76-8.15-30.13-2.8-10.56,6.02-15.71,19.06-12.03,31.29-.61,3.11-1.97,8-5.46,12.73-6.18,8.39-13.69,9.07-17.29,16.88-1.16,2.53-2.25,6.54-1.18,12.54-2.6,7.63-5.53,19.12-5.65,33.29-.13,15.06,2.98,27.22,5.65,35.08-18.53,9.01-31.85,23.02-30.98,36.68.59,9.14,7.46,16.95,17.49,28.34,6.91,7.85,13.49,13.46,18.05,17.01,1.37,15.36-.82,19.94-3.37,20.97-3.25,1.32-7.01-3.14-18.89-9.04-4.81-2.39-8.97-4.03-11.91-5.09-2.24,3.19-16.83,23.29-38.14,23.18-9.43-.05-17.6-4.04-22.91-6.63-10.65-5.2-17.88-11.94-22.13-16.55h-55.83c4.55-20.91,33.45-160.21-28.17-199.93-3.86-2.49-8.12-4.62-12.85-6.3-7.98,2.66-15.95,5.32-23.93,7.98,6.33-33.85,7.71-61.37,7.83-80.06.22-34.28-3.72-52.82-3.02-95.27.38-23.03,1.95-41.75,3.16-53.68,7.02-32.18,19.81-83.12,40.86-134.45,8.98-21.9,18.82-42.3,36.78-63.31,11.35-13.27,22.49-22.76,30.6-28.97,17.71-2.17,32.15-3.45,41.76-4.2,39.86-3.1,54.39-1.66,76.78-10.25,10.53-4.04,18.72-7.18,26.93-15.07,12.12-11.65,11.71-21.57,24.12-37.39,2.72-3.46,5.98-7.12,24.72-22.31,25.24-20.45,37.86-30.68,50.65-38.59,13.17-8.14,32.54-18.55,58.11-27.15Z"/>
  <path class="cls-3" d="M1155.95,856.29c-.04,1.28.08,3.3,1.17,5.25,5.31,9.46,25.32,2.78,47.6,8.72,6.5,1.73,15.5,5.15,25.52,12.65,1.71.43,5.06,1.02,9,0,2.15-.56,5.37-1.4,7.27-3.93,3.3-4.41-.87-9.31,1.09-15.88.83-2.79,2.94-6.44,8.65-9.91-1.13-.29-10.72-2.97-14.82-12.73-4.62-10.98,2.02-20.73,2.44-21.32,6.33-5.75,11.84-7.36,15.73-7.75,8.76-.89,13.52,3.96,22.53,2.54,5.6-.88,9.83-3.71,12.51-5.94,1.96-3.04,6.93-11.64,6.38-23.5-.44-9.72-4.37-16.73-6.38-19.84-18.42-5.1-22.91-15.08-23.78-17.22-8.52-20.97,22.26-46.35,29.07-51.97,9.61-7.92,16.02-9.74,21.08-10.17,10.06-.86,17.95,3.53,21.3,5.68-3-7.22-6.46-17.87-7.49-31.12-.8-10.32.1-19.17,1.3-25.84-1.92-2.67-5.04-7.73-6.39-14.86-1.48-7.78-.11-14.12.82-17.34-3.79-4.97-7.58-10.09-11.36-15.37-9.99-13.95-18.96-27.66-27.03-40.98-3.96-.14-9.21.12-15.12,1.73-11.37,3.09-18.92,9.46-22.65,13.13-15.21-.13-27.77,6.05-31.95,16.16-.79,1.92-2.16,5.23-1.36,9.23,2.27,11.36,18.79,11.66,30.52,23.62,4.79,4.88,10.32,13.27,12.08,28.38-1.95,9.97-9.88,17.68-19.71,19.22-9.15,1.44-18.42-2.7-23.63-10.55,2.51,16.27-4.91,30.54-16.34,34.9-6.2,2.37-14.56,2.19-20.71-2.18-9.8-6.96-9.78-21.52-9.45-43.97.16-11.07,1.2-26.36,5.02-44.47-4.07.26-8.98.22-14.47-.59-9.78-1.43-17.49-4.71-22.68-7.46,1.53,1.08,3.65,2.71,5.96,4.92,4.59,4.37,13.88,13.23,14.54,25.44.11,1.99.89,16.53-9.45,21.8-7.18,3.66-17.08,1.5-24.05-5.72.3,3.22,1.02,15.07-6.84,22.07-2.51,2.24-4.98,3.17-7.27,4-13.04,4.74-21.6-.92-36.31.18-4.22.32-10.6,1.31-18.32,4.7-1.24,6.4-2.48,12.8-3.71,19.19.23.9.74,2.43,2.01,3.71,4.06,4.12,10.84.76,19.26,3.09,0,0,4.19,1.16,9.81,5.45,9.59,7.32,11.24,33.66,1.11,64.52,7.96,6.38,11.01,12.6,12.33,17.03,2.59,8.66-.08,14.92,2.18,31.11.53,3.81,1.16,6.89,1.58,8.83.87,1.26,2.33,3,4.59,4.26,8.61,4.8,18.61-3.06,30.16-6.18,18.09-4.89,42.37,1.2,47.6,14.17,3.16,7.83-.54,18.35-7.27,24.71-9.74,9.21-22.58,6.62-23.7,6.38Z"/>
  <path class="cls-3" d="M844.52,706.46c-1.94,3.87-4.1,9.77-2.46,15.91,2.36,8.83,10.6,10.75,13.45,19.62,1.19,3.72,1.73,9.61-2.32,18.34,2.13,1.25,11.34,6.96,14.68,18.73,2.4,8.45.5,15.57-.44,18.42,1.38-.32,3.41-.73,5.89-.98,1.81-.18,17.58-1.63,25.44,4.72,8.24,6.66,9.62,23.39,1.49,39.59.79,1.08,2.17,2.66,4.32,3.65,9.66,4.42,19.52-10.19,33.43-7.63,1.3.24,8.25,1.52,11.63,6.9,3.35,5.34.52,10.45,4,14.9,2.05,2.62,5.72,4.28,11.63,4.47,3.91.24,9.66,0,15.26-3.01,8.63-4.65,9.43-11.89,16.35-15.63,4.27-2.31,11.47-3.61,24.11,1.92.54-1.85,1.24-4.65,1.69-8.1,1.77-13.7-3.35-16.1-1.45-23.98,2.56-10.62,13.3-12.26,14.62-24.71.22-2.09.11-3.81,0-4.81-2.68-.28-15.09-1.83-21.89-12-3.84-5.74-4.28-11.83-4.36-13.72-.46-11.56,6.98-16.69,5.09-26.89-.7-3.78-2.38-6.64-3.6-8.38-.35-2.85-5.16-39.83-18.19-41.29-1.05-.12-2.21-.01-3.48.43-2.8,14.79-10.83,26.38-21.24,28.53-9.5,1.97-18.92-4.36-21.08-5.81-11.75-7.9-14.72-20.29-22.89-19.99-2.11.08-3.78.97-4.75,1.6-3.47,1.3-8.91,3.79-14.14,8.57-7.06,6.44-7.4,11.23-14.17,15.63-1.88,1.22-8.94,5.8-16.72,4.36-11.42-2.11-14.61-15.37-22.53-14.54-3.38.36-5.86,3.09-7.36,5.17Z"/>
  <path class="cls-3" d="M1001.64,948.59c.81.97,1.65,1.45,2.49,1.6,7.21,1.28,17.29-21.96,23.73-38.97-.78-3.07-2.53-11.7,1.31-21.49,4.57-11.67,13.96-16.99,16.49-18.32-.42-33.08-2.76-49.88-7.02-50.38-.82-.1-1.7.4-2.66,1.5l-10.91,36.81c-1.21,1.78-3.66,4.85-7.8,7.18-5.72,3.21-11.2,3.05-13.38,2.86-.99,2.07-2.15,5.16-2.49,9.05-.63,7.06,1.79,12.53,3.05,14.94-.47,2.25-1.6,6.16-4.58,10.1-2.29,3.03-4.82,4.95-6.58,6.08,1.92,4.38,3.84,9.6,5.36,15.6,2.27,9.01,2.95,17.05,3.01,23.44Z"/>
  <path class="cls-3" d="M1051.28,940.22c2.97-.21,11.96-.44,20.93,5.38,7.76,5.04,11.27,11.86,12.53,14.7,2.04.05,9.91.48,16.78,6.68,6.7,6.04,8.02,13.57,8.32,15.63,5.02.74,10.04,1.49,15.06,2.23.61-.81,8.76-11.15,22.12-10.23,11.27.77,17.66,8.97,18.6,10.23,5.39-4.09,10.78-8.18,16.18-12.27-.45-9.59-2.21-23.42-8.21-38.88-4.77-12.28-10.75-21.82-15.77-28.62-3.54,9.12-12.17,15.24-21.78,15.49-8.97.23-17.38-4.7-21.72-12.7-2.37-.94-7.11-3.18-11.25-8.07-3.99-4.71-5.46-9.54-6.04-12.01-15.25,1.67-30.49,3.35-45.74,5.02,15.23,4.39,23.34,19.04,20.02,30.81-2.35,8.34-10.3,14.76-20.02,16.6Z"/>
  <path class="cls-3" d="M1208.58,1006.6c.91.94,1.76,1.38,2.57,1.3,4.73-.45,7.77-18.36,9.14-53.73,2.08-.32,4.62-.93,7.35-2.15,6.49-2.89,10.34-7.52,12.18-10.12.74-2.32,2.41-8.59,0-15.83-1.49-4.49-3.96-7.56-5.58-9.27-2.32-.14-9.9-.9-16.67-6.91-7.14-6.34-8.64-14.3-8.98-16.51-3.24,1.21-8.26,2.66-14.53,2.77-7.09.13-12.73-1.49-16.15-2.77-.59,2.43-1.24,6.68,0,11.63,2.47,9.85,10.51,14.7,12.27,15.7-.06,3.11.23,8.05,2.35,13.61,2.81,7.38,7.38,12.04,9.92,14.28-.02,7.67.28,15.97,1.07,24.8,1.09,12.23,2.93,23.35,5.06,33.21Z"/>
  <path class="cls-1" d="M998.25,65.92c-5.6,6.66-12.48,17.04-13.82,30.45-1.79,17.91,8.13,22.96,11.64,49.48,2.76,20.87-.8,37.27-2.38,44.27-3.53,15.58-8.68,24.77-9.92,26.91-6.48,11.25-13.88,17.92-15.79,19.77-9.93,9.65-19.38,33.33-17.59,94.6-7.63-3.25-19.31-6.97-33.25-6.1-18.54,1.16-29.78,9.74-40.32,14.54-15.17,6.9-39.74,10.92-80-4.56,3.47-11.82,6.54-26.27,7.66-42.87,2.4-35.35-5.13-64.26-11.68-82.57,13.83-.97,32.94-4.68,47.84-18.49,12.14-11.25,13.12-21.44,24.12-37.39,10.93-15.84,23.48-24.49,48.13-41.16,19.76-13.35,48.19-30.56,85.36-46.89Z"/>
  <path class="cls-1" d="M786.6,213.1c2.81,3.8,5.23,7.62,7.32,11.39,23.46,42.43,11.09,91.05,3.21,114.27-.43.83-4.36,8.56-1.16,13.47,3.45,5.29,14.82,6.78,25.34-.95-6.17,11.99-14.34,28.72-22.96,49.13-17.65,41.79-27.18,75.4-35.15,103.84-5.72,20.43-12.51,46.87-18.94,78.17-21.15,5.89-47.05,11.38-76.87,14.15-30.88,2.86-58.2,2.08-80.61,0-4.88-45.39-4.2-83.49-2.25-111.69,2.44-35.27,7.18-59.85,8.22-65.13,6-30.5,14.09-55.9,21.37-75.32,13.12-35,24.87-66.35,53.01-97.52,10.78-11.94,20.98-20.55,28.04-26.03,30.48-2.59,60.95-5.19,91.43-7.78Z"/>
  <path class="cls-1" d="M586.74,600.46c24.27-.76,50.09-2.35,77.26-5.08,28.99-2.91,56.23-6.79,81.55-11.23,1.94,8.59,4.61,21.37,7.08,37.01,5.1,32.41,3.02,37.26,7.73,56.92,5.02,20.95,11.24,45.38,31.03,55.12,6.41,3.15,12.51,3.91,16.49,4.09-.83,5.99-1.34,13.43-.75,21.9.76,10.94,3.1,20.06,5.4,26.83-16.45,5.66-28.93,16.99-30.35,30.15-1.2,11.19,5.89,20.77,13.49,31.03,7.46,10.08,15.6,16.76,21.42,20.86,1.37,15.36-.82,19.94-3.37,20.97-3.25,1.32-7.01-3.14-18.89-9.04-4.81-2.39-8.97-4.03-11.91-5.09-1.75,3.17-11.3,19.76-29.63,23.18-12.77,2.39-23.47-2.79-31.42-6.63-10.69-5.17-17.92-11.95-22.13-16.55h-55.83c8.76-44.34,9.97-78.57,9.47-101.3-.12-5.5-.44-14.54-2.26-26.1-3.09-19.62-8.04-51.08-31.9-69.61-6.14-4.77-12.1-7.57-16.33-9.22-7.98,2.66-15.95,5.32-23.93,7.98l7.79-76.18Z"/>
  <path class="cls-1" d="M945.7,331.8c-2.58-1.18-6.2-2.65-10.66-3.91-4.53-1.27-10.32-2.85-17.9-2.59-5.89.21-10.3,1.44-13.48,2.33-2.71.76-6.89,1.95-11.81,4.57-4.02,2.14-3.71,2.66-7.83,4.87-5.11,2.74-9.46,4-11.85,4.68-1.47.42-5.06,1.38-11.24,2.16-11.91,1.49-21.36.75-23.65.55-9.52-.82-16.9-2.72-20.88-3.88-6.51-1.9-11.92-4.15-16.07-6.14-5.07,7.06-6.55,15.04-3.54,18.83,3.74,4.7,15.9,4.85,26.33-4.81-7.06,13.27-13.94,27.22-20.54,41.86-30.98,68.71-47.54,134.46-56.16,191.76,6.58,24.86,9.65,45.41,11.24,59.81,1.93,17.48,1.28,22.38,4.25,36.76,4.38,21.21,9.29,43.51,26.6,52.65,7.37,3.89,14.81,4.25,19.66,4.02,1.45-5.89,2.91-11.78,4.36-17.67-.56-3.06-.94-7.81,1.18-12.54,2.84-6.32,7.97-7.74,13.78-14.08,2.72-2.97,6.33-7.84,8.96-15.53-3.68-12.23,1.47-25.26,12.03-31.29,9.37-5.34,21.41-4.26,30.13,2.8,1.59-1.5,4.19-4.36,5.63-8.67,2.53-7.56-.23-14.47-.96-16.22-2.58-6.2-5.6-6.23-6.84-11.82-1.08-4.89.3-9.02.9-10.72,1.9-5.44,6.03-10.25,10.78-12.44,8.73-4.03,21.38-.03,29.23,10.88,3.32-2.92,8.2-7.91,11.8-15.3,5.91-12.12,5.54-24.88,5.12-35.42-.58-14.87-3.39-18.55,0-26.05.73-1.62,4.48-9.92,13.49-12.93,7.13-2.39,13.39-.07,15.55.76,12.26,4.74,16.18,17.58,16.71,19.43,48.11-22.25,73.98-56.71,67.46-80.88-1.33-4.92-4.89-12.74-16.18-20.52-16.71-6.7-27.27-5.14-33.87-2.39-6.79,2.83-12.5,8.21-21.1,7.24-4.95-.56-8.76-2.99-11.11-4.84-20.19,9.78-40.07,9.02-46.17.62-6.91-9.52.24-33.87,25.66-50.76-13.1-3.31-20.95-15.81-18.69-27.19,1.78-8.98,9.66-16.28,19.69-17.99Z"/>
  <path class="cls-1" d="M1342.32,690.98c-3-7.22-6.46-17.87-7.49-31.12-.8-10.32.1-19.17,1.3-25.84-1.92-2.67-5.04-7.73-6.39-14.86-1.48-7.78-.11-14.12.82-17.34-12.8-18.78-25.59-37.56-38.39-56.34-5.29.69-12.2,2.11-19.87,5.13-7.6,3-13.58,6.65-17.9,9.73-15.21-.13-27.77,6.05-31.95,16.16-.79,1.92-2.16,5.23-1.36,9.23,2.27,11.36,18.79,11.66,30.52,23.62,4.79,4.88,10.32,13.27,12.08,28.38-1.95,9.97-9.88,17.68-19.71,19.22-9.15,1.44-18.42-2.7-23.63-10.55.51,3.75,1.33,13.77-4.51,23.68-2.55,4.32-5.6,7.34-8.03,9.32,1.07,20.78,6.9,36.04,11.28,45.14,6.5,13.51,12.53,26.04,25.19,29.26,11.66,2.97,22.52-3.59,26.59-6.35-.78-3.3-1.51-8.15-.7-13.8,1.95-13.52,11.29-21.86,22.04-31.45,11.32-10.1,18.08-16.13,28.8-16.89,9.58-.67,17.3,3.22,21.3,5.68Z"/>
  <path class="cls-1" d="M1141.71,582.63c4.34,2.31,10.6,5.06,18.51,6.72,7.44,1.56,13.9,1.63,18.64,1.33-10.84,47.34-7.07,83.67,9.29,90.93,3.31,1.47,8.3,2.26,15.85-.3.91,40.93,20.45,71.8,44.83,76.83,5.01,1.03,14.06,1.77,26.23-3.59,3.46,1.79,6.92,3.57,10.37,5.36,3.07,1.59,6.14,3.17,9.21,4.76,2.01,3.11,5.94,10.12,6.38,19.84.54,11.86-4.43,20.46-6.38,23.5-2.68,2.23-6.92,5.06-12.51,5.94-9.06,1.43-12.64-3.68-22.53-2.54-2.57.3-10.55,1.21-15.73,7.75-5.46,6.89-4.05,15.26-3.81,16.51,1.5,8.09,7.78,14.76,16.2,17.54-6.16,3.62-8.04,7.28-8.65,9.91-1.26,5.47,2.38,9.3-.18,14.15-1.49,2.83-4.12,4.17-5.42,4.83-5.29,2.69-10.48,1.23-11.76.83-19.78-12.66-35.39-15.37-46.12-15.43-8.31-.05-22.77,1.43-27.01-5.94-1.09-1.9-1.22-3.9-1.17-5.25,3.3.22,11.15.28,19-4.48,1.7-1.03,9.22-5.59,12.11-13.94,1.09-3.16,1.03-5.45,1-6.13,0,0-.23-4.71-3.73-9.4-5.39-7.21-26.89-18.72-47.14-11.38-10.11,3.66-15.24,10.33-23.55,8.19-4.22-1.09-7.19-3.92-9.07-6.19-1.51-8.62-2.2-15.74-2.56-20.75-.87-12.3-.11-17.83-3.53-24.71-2.78-5.6-6.92-9.26-10.01-11.49,10.13-30.86,8.48-57.2-1.11-64.52-5.62-4.29-9.81-5.45-9.81-5.45-8.42-2.34-15.2,1.03-19.26-3.09-1.27-1.29-1.78-2.82-2.01-3.71,1.24-6.4,2.48-12.8,3.71-19.19,7.52-3.41,13.84-4.43,18.32-4.7,11.18-.69,15.08,3,26.74,1.67,5.8-.66,11.89-1.35,16.83-5.85,8.15-7.42,7.09-19.66,6.84-22.07.64.77,7.1,8.38,16.67,7.47,6.44-.61,10.44-4.7,11.78-6.11,6.56-6.9,7.34-17.53,4.39-24.96-1.24-3.12-4.09-6.27-9.79-12.58-4.03-4.45-7.58-7.93-10.06-10.26Z"/>
  <circle class="cls-2" cx="1299.65" cy="657.5" r="12.72"/>
  <circle class="cls-2" cx="1155.93" cy="767.14" r="12.6"/>
  <circle class="cls-2" cx="949.36" cy="758.95" r="10.64"/>
  <circle class="cls-2" cx="714" cy="721.33" r="11.82"/>
  <circle class="cls-2" cx="835.17" cy="559.34" r="13.86"/>
  <circle class="cls-2" cx="698.92" cy="478" r="15.08"/>
  <circle class="cls-2" cx="909.45" cy="211.22" r="13.93"/>
</svg>